HIERARCHY
ROOT Hips
{
	OFFSET -10.056300 7.733760 -472.550000
	CHANNELS 6 Xposition Yposition Zposition Zrotation Yrotation Xrotation 
	JOINT Spine
	{
		OFFSET 0.000000 0.000000 0.000000
		CHANNELS 3 Zrotation Yrotation Xrotation
		JOINT Spine1
		{
			OFFSET 19.000000 0.000000 0.000000
			CHANNELS 3 Zrotation Yrotation Xrotation
			JOINT Neck
			{
				OFFSET 22.500000 0.600000 0.000000
				CHANNELS 3 Zrotation Yrotation Xrotation
				JOINT Head
				{
					OFFSET 14.000000 0.030878 0.000000
					CHANNELS 3 Zrotation Yrotation Xrotation
					End Site
					{
						OFFSET 17.000000 0.000000 0.000000
					}
				}
			}
			JOINT LeftShoulder
			{
				OFFSET 19.800000 3.700000 4.300000
				CHANNELS 3 Zrotation Yrotation Xrotation
				JOINT LeftArm
				{
					OFFSET 8.000000 0.000000 0.000000
					CHANNELS 3 Zrotation Yrotation Xrotation
					JOINT LeftForeArm
					{
						OFFSET 15.200000 0.000000 0.000000
						CHANNELS 3 Zrotation Yrotation Xrotation
						JOINT LeftHand
						{
							OFFSET 17.800000 0.000000 0.000000
							CHANNELS 3 Zrotation Yrotation Xrotation
							End Site
							{
								OFFSET 7.200000 0.000000 0.000000
							}
						}
					}
				}
			}
			JOINT RightShoulder
			{
				OFFSET 19.800000 3.700000 -4.300000
				CHANNELS 3 Zrotation Yrotation Xrotation
				JOINT RightArm
				{
					OFFSET 8.000000 0.000000 0.151654
					CHANNELS 3 Zrotation Yrotation Xrotation
					JOINT RightForeArm
					{
						OFFSET 15.200000 0.000000 0.000000
						CHANNELS 3 Zrotation Yrotation Xrotation
						JOINT RightHand
						{
							OFFSET 17.800000 0.000000 0.000000
							CHANNELS 3 Zrotation Yrotation Xrotation
							End Site
							{
								OFFSET 7.200000 0.000000 0.000000
							}
						}
					}
				}
			}
		}
	}
	JOINT LeftUpLeg
	{
		OFFSET 5.984250 -7.666000 4.788790
		CHANNELS 3 Zrotation Yrotation Xrotation
		JOINT LeftLeg
		{
			OFFSET 16.000000 0.000000 0.000000
			CHANNELS 3 Zrotation Yrotation Xrotation
			JOINT LeftFoot
			{
				OFFSET 18.000000 0.000000 0.000000
				CHANNELS 3 Zrotation Yrotation Xrotation
				End Site
				{
					OFFSET 0.000000 -10.800000 0.000000
				}
			}
		}
	}
	JOINT RightUpLeg
	{
		OFFSET 5.984250 -7.665980 -4.788790
		CHANNELS 3 Zrotation Yrotation Xrotation
		JOINT RightLeg
		{
			OFFSET 16.000000 0.000000 0.000000
			CHANNELS 3 Zrotation Yrotation Xrotation
			JOINT RightFoot
			{
				OFFSET 18.000000 0.000000 0.000000
				CHANNELS 3 Zrotation Yrotation Xrotation
				End Site
				{
					OFFSET 0.000000 -10.800000 0.000000
				}
			}
		}
	}
	JOINT Tail
	{
		OFFSET 6.836960 -0.722574 0.000000
		CHANNELS 3 Zrotation Yrotation Xrotation
		JOINT Tail1
		{
			OFFSET 12.000000 0.000000 0.000000
			CHANNELS 3 Zrotation Yrotation Xrotation
			End Site
			{
				OFFSET 12.000000 0.000000 0.000000
			}
		}
	}
}
MOTION
Frames: 14
Frame Time: 0.033333
371.395874 -1.710854 -284.554474 162.204865 68.058800 163.547913 -167.248764 7.114840 4.973291 -19.524050 13.843867 -1.959734 -11.352294 12.490897 -8.342501 10.666831 18.326311 114.736588 59.018166 -24.799324 -135.949921 -85.199348 -45.269711 -161.868118 -60.603180 27.782318 14.868319 -38.344849 -18.299166 8.608626 46.120651 42.860416 -62.008614 48.896427 -51.158520 45.003639 -73.113548 -69.857262 87.360153 20.778509 -6.824970 -11.312589 -105.837669 -19.393963 12.242660 71.764229 32.261677 89.587242 172.578613 -41.140697 -92.220314 -147.392944 -4.102970 12.272553 77.869583 12.720683 -17.102789 39.330013 -25.730438 8.991096 -35.734600 -5.413513 -99.986481 -1.804343 -0.433796 -131.410431 
371.617554 -1.601814 -280.936676 161.446609 69.584503 163.173599 -169.889465 10.116034 4.404577 -14.761279 8.666804 1.250176 -11.636128 13.950529 -9.949753 8.362868 16.917669 113.311508 61.110165 -22.968878 -138.734909 -80.044151 -43.446129 -170.274582 -53.252708 27.631990 25.993465 -36.865231 -14.595700 3.834628 45.333340 42.930103 -62.066753 35.174877 -55.584946 48.333317 -52.763817 -54.956532 86.879601 -0.884622 -14.710432 -3.608322 -99.907394 -16.944925 11.408134 70.790672 28.026159 89.204185 169.507782 -47.977707 -86.644318 -144.160583 -3.944185 8.314677 65.728867 7.274511 -24.296701 49.045628 -24.427677 11.302309 -36.921089 -3.330286 -101.684944 -0.145073 -0.367041 -130.846222 
371.811493 -1.844604 -277.169830 163.409058 72.357819 165.646423 -171.728485 10.340647 3.042530 -8.899705 5.523033 2.778248 -13.449617 15.338979 -11.504414 7.168259 15.166637 111.818329 60.053268 -23.742052 -140.136887 -81.087601 -41.273098 -171.416107 -49.896843 26.599684 29.234604 -27.275351 -6.981472 -6.359857 44.502090 41.765053 -65.721649 28.188562 -57.508167 58.256844 -41.413589 -53.875530 80.614853 -4.134886 -15.400115 -8.234375 -95.880997 -15.167283 10.181423 71.902130 22.878998 87.150398 167.306656 -53.784679 -84.003014 -138.005981 -3.991927 2.597980 59.177738 -0.561004 -29.576319 55.865513 -19.376329 10.615908 -38.270638 -1.778623 -103.280334 2.160809 0.172156 -125.898750 
371.965576 -2.159116 -273.400177 164.508392 76.732841 166.133362 -172.172546 8.184092 1.594454 -5.116690 3.770835 2.404767 -15.982908 16.396000 -13.464083 6.710984 13.554206 109.561333 56.447754 -26.145571 -141.223495 -86.618050 -38.475929 -168.070358 -51.512196 25.832214 24.049189 -12.622777 5.579154 -16.759298 45.082222 39.462372 -70.839226 29.098400 -58.863716 66.842110 -33.206604 -62.118599 69.086800 -4.129694 -13.061723 -10.063285 -94.972054 -12.880886 8.666685 74.834938 18.199930 84.169487 169.748276 -54.346745 -87.691856 -133.994965 -3.920677 -4.639656 60.212677 -8.638709 -30.914698 62.663029 -16.609135 9.772309 -40.322029 0.356711 -103.893845 4.142732 1.101556 -118.989922 
372.049774 -2.323317 -269.740601 154.272583 81.915184 154.740646 -171.783142 3.727546 -0.026565 -4.361749 4.922977 1.220389 -19.575033 16.296049 -15.696476 7.556343 12.128899 107.755608 51.043087 -28.506510 -139.656937 -91.823044 -35.007870 -162.679611 -55.399284 30.011894 15.575861 8.027277 0.755714 -10.810256 48.394806 36.755001 -73.257149 36.407623 -61.111687 73.864059 -16.279068 -74.085960 43.172997 -2.104832 -11.534918 -9.288474 -100.041725 -10.678974 6.827553 79.570801 15.323513 81.341560 174.149002 -52.530003 -96.091454 -129.742111 -3.792141 -11.850330 62.829849 -15.091126 -29.788601 60.058765 -10.028581 14.333904 -44.016872 2.507051 -104.183907 5.146558 1.826198 -113.337471 
372.159698 -2.438432 -266.103912 102.394501 85.575653 102.318817 -170.869934 -2.419945 -1.608209 -5.849446 7.943575 -0.711116 -21.729862 15.878016 -16.785427 9.569040 11.411886 107.200401 44.288128 -29.986813 -136.632690 -94.892693 -33.440662 -155.743317 -60.467178 31.455868 0.366874 38.126614 -8.618731 -10.371955 54.222996 33.507675 -72.308235 49.064713 -65.783440 79.012466 45.344017 -75.260712 -31.285683 -6.429145 -15.813185 -3.933745 -110.510513 -9.888904 4.640066 85.655800 13.629617 79.051750 176.487183 -48.865929 -103.255463 -125.089310 -3.590568 -18.022524 65.777702 -19.261169 -26.469481 53.647324 -0.187402 17.669241 -47.765549 4.142979 -104.610107 5.190685 2.526419 -111.563133 
372.279846 -2.343262 -262.495087 44.222492 83.164558 44.454567 -170.563354 -9.701968 -0.761627 -6.058062 13.875300 -2.576540 -23.662477 12.849251 -18.338652 8.596381 10.575005 106.580597 40.091923 -31.709595 -131.820724 -96.958000 -32.901814 -144.244370 -71.837746 29.924475 -17.945099 44.246056 -16.003269 -10.770314 57.081207 33.261799 -72.527222 61.115677 -68.746674 83.373413 72.159531 -61.285816 -71.198608 -13.242911 -18.997316 1.310911 -123.114616 -11.076422 2.625848 89.821838 13.575253 76.650322 175.980942 -40.376041 -107.942863 -120.860352 -3.759068 -22.899868 68.474754 -20.927650 -21.010601 49.677593 4.587569 13.949884 -50.171265 5.755705 -104.685997 4.702064 2.611538 -114.006996 
372.476562 -2.180979 -258.963013 24.901596 80.026573 26.180790 -171.078491 -16.530710 1.273938 -6.617435 20.678553 -3.405954 -22.985579 10.291227 -17.645840 8.278740 10.423770 108.182373 34.727646 -32.129345 -129.176422 -91.468971 -36.889412 -135.269699 -79.383347 19.913818 -34.256603 32.080524 -9.837773 -5.281678 59.400921 33.083893 -71.358795 68.639977 -68.721375 92.504051 69.040779 -46.568027 -81.043137 -17.425678 -20.452711 3.536342 -134.611450 -14.717552 0.890517 86.428764 14.108429 73.411697 173.062302 -39.509014 -107.245804 -115.971008 -4.503129 -25.728380 70.754517 -20.917717 -15.431345 47.438213 7.648101 9.690598 -49.750374 6.264109 -104.620522 4.105382 3.172963 -120.118568 
372.737152 -2.083247 -255.309448 15.133294 78.696495 17.839655 -172.288651 -21.246082 1.982548 -6.454659 26.443983 -3.875059 -19.315958 10.290666 -13.918055 10.476769 11.475643 111.652306 30.141521 -31.572124 -128.548721 -81.211365 -43.132763 -131.104691 -74.507126 4.469042 -40.393620 13.445665 -1.039970 7.477116 62.812897 31.871752 -67.498520 68.533920 -68.318382 105.989052 59.659294 -34.800552 -85.458992 -20.513680 -18.947313 6.613827 -141.395493 -17.861681 2.346493 79.256828 15.433331 70.281654 169.833878 -40.876038 -105.268539 -109.600456 -5.525763 -25.396843 72.406845 -19.840645 -11.021068 48.504330 9.614235 7.334215 -46.517765 4.276514 -103.741982 3.514539 3.719560 -126.590294 
373.021057 -2.043697 -251.389877 12.991788 79.643166 17.366474 -174.028580 -23.299477 2.207170 -5.459904 31.961796 -4.348246 -15.904497 10.673697 -10.254985 11.438431 13.261460 115.189934 27.479425 -30.862652 -129.530365 -69.057182 -50.191647 -132.739944 -62.302898 -12.862096 -43.901436 -1.250030 2.784421 6.907939 65.551384 30.599615 -63.115467 64.455246 -66.793037 118.043343 53.561710 -24.536659 -91.019753 -22.657482 -20.484230 7.343586 -143.115021 -18.813702 6.656959 70.239029 17.761372 68.507401 166.961227 -43.442760 -102.872444 -103.941803 -6.477030 -21.228760 72.645851 -17.115025 -8.600902 53.170139 10.175773 4.715396 -42.857265 0.192415 -102.439209 2.879091 3.232753 -129.554413 
373.347473 -2.179359 -247.221207 15.173512 81.070023 19.874775 -175.366333 -22.710402 2.856449 -4.042382 36.433208 -5.688488 -13.380186 9.237029 -6.242305 10.779169 14.055573 119.925110 28.433033 -32.199257 -129.911713 -58.723629 -55.009739 -142.845795 -52.853798 -18.857384 -47.933857 -19.298424 -1.591418 -1.194864 65.270172 30.481995 -60.076893 64.663208 -65.044540 122.423363 51.777241 -16.976135 -98.074883 -21.074625 -22.305702 5.032510 -141.382950 -17.906389 13.546326 63.063763 22.756571 67.051285 159.023300 -51.247513 -95.872787 -101.418175 -5.966763 -15.344489 74.924454 -12.734897 -8.287907 59.466251 9.831623 2.924627 -39.907478 -3.263408 -101.110863 1.942213 1.550351 -129.028625 
373.626312 -2.485368 -242.866364 24.046539 82.422104 29.213230 -175.742691 -19.721613 3.892323 -4.652027 37.893219 -6.200967 -11.702833 6.419716 -3.426282 9.499537 13.712077 123.930145 30.137388 -33.051037 -128.175674 -57.167267 -55.556412 -146.014282 -51.611897 -19.371189 -46.173447 -24.934078 -7.965495 0.607089 62.877613 31.542587 -58.314117 68.911964 -62.736355 120.508080 50.931820 -14.009625 -102.160316 -11.470067 -21.660439 5.526213 -138.800018 -17.853113 19.852980 61.662273 29.123007 69.923378 160.985641 -54.150574 -94.156342 -102.149506 -5.023469 -7.392148 78.843079 -6.650873 -7.402442 61.604309 9.286520 2.671105 -37.535816 -5.914531 -99.345215 0.678181 0.763139 -127.119049 
373.809601 -2.799972 -238.513641 44.900200 83.936569 50.647472 -175.232513 -14.551396 5.246300 -7.278483 36.019543 -6.366449 -11.128360 4.090048 -1.701411 8.506749 13.343489 127.802391 34.110786 -33.376774 -127.690788 -65.634819 -55.721115 -144.313309 -57.408161 -17.029978 -39.423008 -29.515516 -11.852244 1.582480 59.715534 33.824780 -57.845558 76.918312 -59.609741 111.593117 52.660404 -18.596689 -104.067963 7.606008 -14.735666 3.016876 -135.099228 -17.983305 24.612995 64.005043 34.333775 72.662262 162.785934 -48.229389 -94.832359 -107.321854 -4.756500 0.271329 82.732796 -0.491298 -6.744060 58.423187 6.683340 2.404217 -37.028446 -7.567501 -98.643311 -0.359354 -0.146262 -125.441216 
373.948181 -2.961620 -234.277679 85.127083 84.069382 90.722458 -173.379547 -7.874598 6.109072 -11.763578 31.565830 -6.166993 -11.982872 2.992105 -0.490673 8.962056 14.082467 132.027832 37.592884 -31.738379 -127.533066 -81.927818 -54.309639 -139.170334 -64.594444 -10.669662 -28.864681 -34.596584 -12.824498 1.695055 54.966518 34.305222 -59.011696 82.377281 -54.666306 98.237175 55.684418 -28.655708 -104.893089 38.851963 9.421495 -4.492025 -130.443390 -18.793077 27.588657 65.546005 38.542625 76.288277 166.072922 -41.794338 -97.662323 -118.097473 -5.201527 7.065263 86.539894 5.149593 -7.922071 45.266342 2.446429 2.711404 -38.783672 -8.919811 -98.158043 -1.136718 -0.945338 -127.438881 
